<svg width="257" height="55" viewBox="0 0 257 55" xmlns="http://www.w3.org/2000/svg"><g fill="none"><path d="M256.545 54.54H15.885L0 38.654V0h240.66l15.885 15.885V54.54zm-2.566-37.592L239.597 2.567H2.567V37.59l14.381 14.382h237.03V16.948z" fill="#CADF2E"/><path d="M31.957 35.222c-4.122 0-7.192-3.362-7.192-7.309 0-3.946 2.924-7.308 7.046-7.308 3.479 0 5.174 2.134 5.174 2.134l2.398-2.339s-2.544-3.07-7.572-3.07c-5.993 0-10.612 4.532-10.612 10.583s4.765 10.583 10.758 10.583c4.97 0 7.572-2.572 7.572-2.572v-9.297H31.43v3.274h4.648v4.327s-1.198.994-4.122.994zm16.945-11.285c3.801 0 6.988 2.953 6.988 7.221 0 .264 0 .79-.03 1.316H45.511c.263 1.228 1.696 2.807 3.889 2.807 2.426 0 3.8-1.404 3.8-1.404l1.754 2.631s-2.192 1.988-5.554 1.988c-4.21 0-7.455-3.215-7.455-7.28 0-4.063 2.953-7.278 6.958-7.278zm-3.39 5.994h6.87c-.06-1.199-1.17-2.807-3.48-2.807-2.25 0-3.274 1.579-3.39 2.807zm20.453-5.994c-2.924 0-4.152 2.368-4.152 2.368v-2.017H58.54v13.858h3.508v-9.15s.936-1.784 2.749-1.784c1.52 0 2.748.848 2.748 2.836v8.098h3.508V29.17c0-3.332-2.397-5.233-5.087-5.233zm14.907 0c4.122 0 7.396 3.187 7.396 7.28 0 4.064-3.274 7.28-7.396 7.28-4.123 0-7.397-3.216-7.397-7.28 0-4.093 3.274-7.28 7.397-7.28zm0 11.285c2.368 0 3.83-1.842 3.83-4.005s-1.463-4.005-3.83-4.005-3.83 1.842-3.83 4.005 1.461 4.005 3.83 4.005zm25.899-11.285c-3.246 0-4.415 2.427-4.415 2.427s-.965-2.427-4.297-2.427c-2.836 0-4.093 2.368-4.093 2.368v-2.017H90.69v13.858h3.51v-9.15s.877-1.784 2.718-1.784c1.754 0 2.485 1.023 2.485 2.923v8.01h3.508v-9.15s.877-1.783 2.72-1.783c1.753 0 2.484 1.023 2.484 2.923v8.01h3.508V29.23c0-3.333-2.046-5.292-4.853-5.292zm14.12 0c3.8 0 6.986 2.953 6.986 7.221 0 .264 0 .79-.029 1.316H117.5c.263 1.228 1.696 2.807 3.888 2.807 2.427 0 3.8-1.404 3.8-1.404l1.755 2.631s-2.193 1.988-5.555 1.988c-4.21 0-7.455-3.215-7.455-7.28 0-4.063 2.953-7.278 6.958-7.278zm-3.392 5.994h6.87c-.058-1.199-1.17-2.807-3.479-2.807-2.25 0-3.274 1.579-3.391 2.807zm22.11 8.215V17.68h6.635c3.333 0 6.52 1.55 6.52 5.847 0 2.485-1.842 3.684-2.134 3.771.292.059 3.186 1.111 3.186 4.795 0 3.596-2.982 6.051-6.84 6.051h-7.368zm7.25-3.333c1.929 0 3.39-.79 3.39-2.72 0-1.929-1.461-2.718-3.39-2.718h-3.743v5.438h3.742zm-3.743-8.77h3.011c1.96 0 3.07-.732 3.07-2.515 0-1.783-1.345-2.514-3.07-2.514h-3.01v5.028zm13.28 12.103h3.507V24.288h-3.508v13.857zm-.556-18.33a2.296 2.296 0 0 0 2.31 2.309c1.285 0 2.309-1.023 2.309-2.31s-1.024-2.31-2.31-2.31a2.296 2.296 0 0 0-2.31 2.31zm13.98 4.121c4.122 0 7.396 3.187 7.396 7.28 0 4.063-3.274 7.28-7.396 7.28s-7.396-3.217-7.396-7.28c0-4.093 3.274-7.28 7.396-7.28zm0 11.285c2.368 0 3.83-1.842 3.83-4.005s-1.462-4.005-3.83-4.005-3.83 1.841-3.83 4.005c0 2.163 1.462 4.005 3.83 4.005zm10.459 2.923h3.508v-22.1h-3.509v22.1zm13.966-14.208c4.122 0 7.397 3.187 7.397 7.28 0 4.063-3.275 7.28-7.397 7.28s-7.396-3.217-7.396-7.28c0-4.093 3.274-7.28 7.396-7.28zm0 11.285c2.368 0 3.83-1.842 3.83-4.005s-1.462-4.006-3.83-4.006c-2.368 0-3.83 1.842-3.83 4.006s1.462 4.005 3.83 4.005zm19.785 1.49c-.468.586-1.725 1.784-3.918 1.784-3.596 0-6.753-3.011-6.753-7.28 0-4.268 3.157-7.279 6.753-7.279 2.894 0 4.18 2.164 4.18 2.164v-1.813h3.246v13.974c0 4.824-3.567 6.958-7.455 6.958-3.976 0-6.578-2.631-6.578-2.631l1.988-2.69s1.93 2.047 4.59 2.047c2.719 0 3.947-1.491 3.947-3.567v-1.666zm0-3.42v-4.15s-.994-1.93-3.304-1.93c-2.368 0-3.8 1.724-3.8 4.005 0 2.28 1.432 4.005 3.8 4.005 2.28 0 3.304-1.93 3.304-1.93zm5.927 10.466s1.608 1.462 3.713 1.462c2.046 0 4.005-.935 5.203-3.976l6.724-16.956h-3.77l-3.655 10.145-4.678-10.145h-3.888l6.753 14.179-.555 1.432c-.673 1.696-1.17 2.047-2.368 2.047-.907 0-1.842-.907-1.842-.907l-1.637 2.72z" fill="#696969"/></g></svg>